<?xml version="1.0" encoding="utf-8"?>
<!-- Generator: Adobe Illustrator 24.0.1, SVG Export Plug-In . SVG Version: 6.00 Build 0)  -->
<svg version="1.1" xmlns="http://www.w3.org/2000/svg" xmlns:xlink="http://www.w3.org/1999/xlink" x="0px" y="0px"
	 viewBox="0 0 217.3 168.9" style="enable-background:new 0 0 217.3 168.9;" xml:space="preserve">
<style type="text/css">
	.st0{display:none;}
	.st1{display:inline;}
	.st2{fill:#F9F1E1;}
	.st3{fill:#EAF4FE;}
	.st4{fill:none;stroke:#0561FC;stroke-width:6.8376;stroke-miterlimit:10;}
	.st5{fill:#0561FC;}
	.st6{fill:#C5E1F9;}
	.st7{fill:#7EB3FF;}
	.st8{fill:#B5D5EA;}
	.st9{fill:#E1EBF4;}
	.st10{fill:#9AC7F7;}
	.st11{fill:none;stroke:#0561FC;stroke-width:6.8376;}
	.st12{fill:none;stroke:#7EB3FF;stroke-width:6.8376;}
	.st13{fill:none;stroke:#0561FC;stroke-width:6.8376;stroke-linecap:round;}
	.st14{fill:none;stroke:#0561FC;stroke-width:7.1001;}
	.st15{fill:#B6D9EF;}
	.st16{fill:none;stroke:#9AC7F7;stroke-width:6.8376;}
	.st17{fill:none;stroke:#0561FC;stroke-width:6.8376;stroke-linejoin:bevel;}
	.st18{fill:none;stroke:#0561FC;stroke-width:6.8376;stroke-linecap:round;stroke-linejoin:round;}
	.st19{fill:none;stroke:#0561FC;stroke-width:5.0237;}
	.st20{fill:none;stroke:#0450CF;stroke-width:6.8376;}
	.st21{fill:none;stroke:#C5E1F9;stroke-width:6.8376;}
	.st22{fill:#FFBF0D;}
	.st23{fill:#B2D2EA;}
	.st24{fill:none;stroke:#0561FC;stroke-width:6.9311;}
	.st25{fill:none;stroke:#0561FC;stroke-width:6.8376;stroke-linecap:round;stroke-miterlimit:10;}
	.st26{fill:#FFFFFF;}
	.st27{fill:#FFFFFF;stroke:#0561FC;stroke-width:6.8376;}
</style>
<g id="Layer_2">
	<g class="st0">
		<g class="st1">
			<rect x="-1.9" y="-26.1" class="st2" width="218.8" height="218.8"/>
		</g>
	</g>
</g>
<g id="Layer_3">
</g>
<g id="Layer_4">
	<g>
		<path class="st6" d="M217.3,129.6c0,4.6-3.4,8.3-7.7,8.3h-14.9v31l-36.6-31H62.6c-4.3,0-7.7-3.7-7.7-8.3V35.8
			c0-4.6,3.4-8.3,7.7-8.3h147c4.3,0,7.7,3.7,7.7,8.3V129.6z"/>
		<path class="st14" d="M3.6,105.7c0,4.6,3.4,8.3,7.7,8.3h14.9v31l36.6-31h95.4c4.3,0,7.7-3.7,7.7-8.3V11.8c0-4.6-3.4-8.3-7.7-8.3
			h-147c-4.3,0-7.7,3.7-7.7,8.3V105.7z"/>
		<line class="st11" x1="34.7" y1="40.7" x2="125.6" y2="40.7"/>
		<line class="st11" x1="34.7" y1="58.9" x2="125.6" y2="58.9"/>
		<line class="st11" x1="34.7" y1="77.1" x2="125.6" y2="77.1"/>
	</g>
</g>
</svg>
